<?xml version="1.0" standalone="no"?>
<!DOCTYPE svg PUBLIC "-//W3C//DTD SVG 20010904//EN"
 "http://www.w3.org/TR/2001/REC-SVG-20010904/DTD/svg10.dtd">
<svg version="1.0" xmlns="http://www.w3.org/2000/svg"
 width="1024.000000pt" height="1024.000000pt" viewBox="0 0 1024.000000 1024.000000"
 preserveAspectRatio="xMidYMid meet">
<metadata>
Created by potrace 1.11, written by Peter Selinger 2001-2013
</metadata>
<g transform="translate(0.000000,1024.000000) scale(0.100000,-0.100000)"
fill="#000000" stroke="none">
<path d="M4333 8673 c197 -2 517 -2 710 0 194 1 33 2 -358 2 -390 0 -549 -1
-352 -2z"/>
<path d="M5765 8671 l140 -5 -147 -6 -148 -5 -1771 -1770 -1770 -1770 1802
-1799 1803 -1799 127 6 c134 6 174 17 203 59 26 37 20 99 -13 144 -16 21 -779
788 -1695 1704 -916 915 -1666 1669 -1666 1675 -1 5 750 759 1669 1675 918
916 1681 1683 1695 1704 52 78 25 161 -60 185 -22 6 -100 10 -174 9 l-135 -2
140 -5z m-190 -6561 c44 -44 77 -80 75 -80 -3 0 -41 36 -85 80 -44 44 -77 80
-75 80 3 0 41 -36 85 -80z m110 -110 c10 -11 16 -20 13 -20 -3 0 -13 9 -23 20
-10 11 -16 20 -13 20 3 0 13 -9 23 -20z m85 -85 c30 -30 52 -55 49 -55 -2 0
-29 25 -59 55 -30 30 -52 55 -49 55 2 0 29 -25 59 -55z m81 -82 c13 -16 12
-17 -3 -4 -10 7 -18 15 -18 17 0 8 8 3 21 -13z m60 -60 c13 -16 12 -17 -3 -4
-10 7 -18 15 -18 17 0 8 8 3 21 -13z"/>
<path d="M3940 8660 c13 -10 11 -11 -8 -7 -14 3 -20 1 -15 -6 4 -6 -2 -8 -15
-5 -14 4 -20 2 -15 -5 4 -7 0 -8 -11 -4 -11 5 -15 3 -10 -5 5 -8 2 -9 -9 -5
-10 4 -16 2 -14 -5 1 -6 -4 -13 -12 -16 -9 -3 -11 0 -6 9 5 8 4 11 -1 6 -5 -5
-9 -18 -9 -30 -1 -12 -6 -21 -11 -20 -6 1 -93 -82 -195 -185 -174 -177 -176
-179 -34 -42 83 80 -72 -79 -344 -352 -272 -273 -498 -495 -501 -493 -3 2
-400 -390 -881 -871 -480 -481 -878 -874 -884 -874 -5 0 424 435 955 968 786
787 746 749 -213 -208 -647 -646 -1177 -1177 -1177 -1180 0 -2 25 20 55 50 30
30 55 50 55 44 0 -5 -22 -32 -50 -59 -27 -26 -47 -52 -44 -56 2 -4 -4 -6 -16
-4 -11 2 -23 -1 -26 -7 -4 -6 -3 -8 3 -5 6 4 13 0 16 -7 4 -10 0 -14 -13 -11
-14 3 -17 -1 -13 -12 4 -11 2 -14 -5 -9 -8 5 -10 1 -5 -10 5 -13 3 -15 -7 -9
-8 5 -11 4 -7 -2 4 -6 4 -33 0 -59 -6 -43 -8 -46 -15 -24 -4 15 -6 -6 -5 -55
6 -152 -13 -129 605 -750 301 -302 574 -577 607 -610 33 -33 529 -526 1102
-1095 1140 -1132 1094 -1090 1233 -1110 36 -5 370 -10 743 -10 535 0 677 3
677 13 0 6 -806 817 -1791 1801 l-1791 1789 1769 1769 1768 1768 -707 0 c-388
0 -715 3 -725 6 -15 5 -16 4 -3 -6z m-3075 -3016 c-208 -200 -225 -214 -70
-57 87 89 161 160 164 157 3 -2 -40 -48 -94 -100z m-398 -581 c-3 -10 -5 -4
-5 12 0 17 2 24 5 18 2 -7 2 -21 0 -30z m32 -83 c11 -24 11 -24 -3 -6 -9 11
-16 24 -16 30 0 12 5 7 19 -24z m47 -42 c3 -4 -1 -5 -10 -4 -8 1 -18 5 -22 8
-3 4 1 5 10 4 8 -1 18 -5 22 -8z m1055 -1055 c13 -16 12 -17 -3 -4 -10 7 -18
15 -18 17 0 8 8 3 21 -13z"/>
<path d="M6425 8387 c-22 -8 -55 -21 -73 -31 -36 -18 -452 -413 -642 -609 -63
-65 -658 -663 -1321 -1330 -664 -667 -1214 -1226 -1223 -1244 -19 -37 -20 -70
-6 -110 12 -32 591 -617 632 -639 36 -19 91 -18 131 2 18 9 604 588 1303 1286
1115 1114 1274 1269 1290 1260 34 -19 1844 -1837 1844 -1852 0 -8 -576 -591
-1279 -1295 -1414 -1415 -1314 -1306 -1273 -1398 29 -63 615 -642 659 -652 79
-16 -1 -92 1681 1588 934 934 1592 1598 1605 1622 32 58 31 202 0 260 -13 24
-652 670 -1555 1572 -1271 1271 -1541 1536 -1581 1553 -61 27 -140 34 -192 17z"/>
<path d="M3409 8213 c-13 -16 -12 -17 4 -4 9 7 17 15 17 17 0 8 -8 3 -21 -13z"/>
<path d="M3075 7848 l-350 -353 353 350 c327 325 356 355 349 355 -1 0 -160
-159 -352 -352z"/>
<path d="M3129 7933 c-13 -16 -12 -17 4 -4 9 7 17 15 17 17 0 8 -8 3 -21 -13z"/>
<path d="M2960 7765 c-41 -41 -72 -75 -69 -75 2 0 38 34 79 75 41 41 72 75 69
75 -2 0 -38 -34 -79 -75z"/>
</g>
</svg>
